<?xml version="1.0" encoding="UTF-8" standalone="no"?>
<!DOCTYPE svg PUBLIC "-//W3C//DTD SVG 1.1//EN" "http://www.w3.org/Graphics/SVG/1.1/DTD/svg11.dtd">
<svg width="100%" height="100%" viewBox="0 0 85 89" version="1.1" xmlns="http://www.w3.org/2000/svg" xmlns:xlink="http://www.w3.org/1999/xlink" xml:space="preserve" xmlns:serif="http://www.serif.com/" style="fill-rule:evenodd;clip-rule:evenodd;stroke-linejoin:round;stroke-miterlimit:1.41421;">
    <g transform="matrix(1.01137,0,0,1.01137,-8.09096,-969.261)">
        <path d="M50,958.362C42.524,958.362 34.146,960.983 27.5,966.3C21.222,971.322 16.687,978.951 16.187,988.706C14.219,989.396 12.604,991.167 11.187,993.456C9.355,996.415 8,1000.49 8,1005.36C8,1009.34 9.389,1013.48 11.937,1016.74C15.099,1020.31 19.388,1022.29 23.219,1022.36C23.533,1024.64 24.414,1027.33 26.125,1028.55C28.882,1030 31.604,1028.9 33.781,1027.39C38.296,1024.25 42.903,1018.38 45.219,1016.02C47.762,1014.36 50.325,1013.98 52.406,1014.64C54.345,1015.26 55.877,1016.83 56.781,1019.36C55.592,1019.77 54.119,1019.97 53.062,1020.14C49.876,1020.65 45.493,1021.45 42.469,1025.08C39.36,1029.57 39.911,1034.96 41.562,1038.8C43.409,1042.92 46.778,1046.36 51,1046.36C54.362,1046 56.275,1043.44 58,1041.05C58.707,1039.87 60.437,1037.88 61,1037.36C63.111,1037.36 65.829,1039.04 67.594,1040.8C68.333,1041.56 69.704,1041.57 70.45,1040.81C71.196,1040.06 71.175,1038.69 70.406,1037.96C68.171,1035.72 64.889,1033.36 61,1033.36C57.889,1033.79 56.317,1036.53 54.75,1038.71C53.652,1040.21 52.662,1041.62 51,1042.36C49.222,1042.36 46.591,1040.31 45.188,1037.17C43.794,1034.07 43.645,1030.36 45.594,1027.58C47.572,1025.27 50.654,1024.57 53.688,1024.08C55.219,1023.84 56.687,1023.68 58.063,1023.18C60.015,1022.45 61,1020.71 60.938,1018.83C59.782,1014.79 56.987,1011.91 53.594,1010.83C49.923,1009.8 45.477,1010.65 42.594,1012.96C39.858,1015.69 35.114,1021.57 31.469,1024.11C30.497,1024.84 29.467,1025.28 28.406,1025.24C27.221,1023.75 27.109,1021.54 27.031,1019.77C28.356,1019 29.065,1018.08 29.688,1016.89C30.265,1017.4 31.144,1017.52 31.839,1017.2C32.534,1016.88 33.008,1016.13 33,1015.36L33,995.362C33.017,994.294 32.037,993.314 30.969,993.331C30.501,993.341 30.038,993.521 29.688,993.831C28.445,991.867 27.069,990.783 25.031,990.425C25.56,977.109 37.251,968.362 50,968.362C62.749,968.362 74.44,977.109 74.969,990.425C72.932,990.667 71.101,992.358 70.344,993.831C69.969,993.5 69.468,993.318 68.969,993.331C67.922,993.347 66.984,994.315 67,995.362L67,1015.36C66.992,1016.13 67.466,1016.88 68.161,1017.2C68.856,1017.52 69.735,1017.4 70.313,1016.89C71.215,1018.9 73.043,1019.97 75,1020.3C74.993,1021.46 76.015,1022.33 77,1022.36C81.667,1022.36 85.514,1019.99 88.063,1016.74C90.611,1013.48 92,1009.34 92,1005.36C92,1000.57 90.96,996.546 89.406,993.581C88.21,991.298 86.717,989.467 84.813,988.737C84.296,978.935 79.489,971.315 72.969,966.3C66.076,960.997 57.476,958.362 50,958.362ZM25,994.518C27.625,996.612 26.993,1003.61 27,1005.3C26.936,1008.3 27.747,1014.43 25.094,1016.24C24.9,1009.22 25,1001.71 25,994.518ZM75.031,994.362C75.037,1001.47 75,1009.05 75,1016.24C74.515,1016.21 74.401,1015.86 74.219,1015.71C73.684,1014.83 73,1011.73 73,1005.3C73,998.934 73.658,995.906 74.187,995.05C74.452,994.622 74.659,994.463 75.031,994.362Z" style="fill:url(#_Linear1);fill-rule:nonzero;"/>
    </g>
    <defs>
        <linearGradient id="_Linear1" x1="0" y1="0" x2="1" y2="0" gradientUnits="userSpaceOnUse" gradientTransform="matrix(85,89,-89,85,7.99998,958.362)"><stop offset="0" style="stop-color:rgb(249,69,64);stop-opacity:1"/><stop offset="1" style="stop-color:rgb(207,68,96);stop-opacity:1"/></linearGradient>
    </defs>
</svg>
